<svg viewBox="0 0 32 32" height="32" width="32" xmlns="http://www.w3.org/2000/svg" version="1.1">
  <title>instagram</title>
  <path d="M16 32c-8.837 0-16-7.163-16-16s7.163-16 16-16c8.837 0 16 7.163 16 16v0c0 8.837-7.163 16-16 16v0zM16 1.46c-8.036 0-14.55 6.514-14.55 14.55s6.514 14.55 14.55 14.55c8.036 0 14.55-6.514 14.55-14.55 0-0.004 0-0.007 0-0.011v0.001c-0.028-8.022-6.527-14.517-14.548-14.54h-0.002z" fill="white"></path>
  <path d="M19 16c0 1.657-1.343 3-3 3s-3-1.343-3-3c0-1.657 1.343-3 3-3v0c1.657 0 3 1.343 3 3v0zM19.65 23.36c-1 0.050-1.24 0.060-3.66 0.060s-2.7 0-3.65-0.060c-0.604-0.001-1.181-0.115-1.712-0.321l0.032 0.011c-0.393-0.153-0.727-0.381-0.999-0.669l-0.001-0.001c-0.291-0.273-0.522-0.607-0.673-0.981l-0.007-0.019c-0.196-0.495-0.31-1.068-0.31-1.668 0-0.004 0-0.009 0-0.013v0.001c-0.050-1-0.060-1.24-0.060-3.66s0-2.7 0.060-3.65c-0-0.006-0-0.013-0-0.021 0-0.612 0.121-1.197 0.341-1.73l-0.011 0.030c0.153-0.393 0.381-0.727 0.669-0.999l0.001-0.001c0.273-0.291 0.607-0.522 0.981-0.673l0.019-0.007c0.499-0.193 1.075-0.306 1.678-0.31h0.002c0.95-0.050 1.24-0.060 3.66-0.060v0c2.42 0 2.7 0 3.65 0.060 0.602 0.006 1.175 0.123 1.702 0.331l-0.032-0.011c0.393 0.153 0.727 0.381 0.999 0.669l0.001 0.001c0.291 0.273 0.522 0.607 0.673 0.981l0.007 0.019c0.193 0.499 0.306 1.075 0.31 1.678v0.002c0.050 1 0.060 1.24 0.060 3.66s0 2.7-0.060 3.65c-0.001 0.604-0.115 1.181-0.321 1.712l0.011-0.032c-0.153 0.393-0.381 0.727-0.669 0.999l-0.001 0.001c-0.273 0.291-0.607 0.522-0.981 0.673l-0.019 0.007c-0.497 0.202-1.072 0.326-1.674 0.34l-0.006 0zM19.74 11.17c-0 0.003-0 0.006-0 0.010 0 0.602 0.488 1.090 1.090 1.090s1.090-0.488 1.090-1.090c0-0.602-0.488-1.090-1.090-1.090-0.003 0-0.007 0-0.011 0h0.001c-0.592 0.006-1.070 0.487-1.070 1.080 0 0 0 0 0 0v0zM20.64 16c0-2.568-2.082-4.65-4.65-4.65s-4.65 2.082-4.65 4.65c0 2.568 2.082 4.65 4.65 4.65 0.004 0 0.007 0 0.011 0h-0.001c2.568 0 4.65-2.082 4.65-4.65v0z" fill="white"></path>
</svg>
